<?xml version="1.0" encoding="UTF-8"?>
<svg width="190px" height="43px" viewBox="0 0 190 43" version="1.1" xmlns="http://www.w3.org/2000/svg" xmlns:xlink="http://www.w3.org/1999/xlink">
    <title>Agmen-logo-dark</title>
    <g id="Page-1" stroke="none" stroke-width="1" fill="none" fill-rule="evenodd" opacity="0.559547602">
        <g id="Homepage-new" transform="translate(-623.000000, -4323.000000)" fill="#000000" fill-rule="nonzero">
            <g id="Agmen-logo-dark" transform="translate(623.370260, 4323.460077)">
                <g id="Group">
                    <polygon id="Path" points="38.984127 21.3650794 40.6349206 20.4444444 28.952381 0 6.06349206 40.0952381 0 40.0952381 0 42 7.17460317 42 28.952381 3.84126984"></polygon>
                    <path d="M58.3174603,19.4920635 L58.2857143,19.3968254 C58.2857143,19.3968254 58.0952381,19.3968254 57.7777778,19.4603175 L56.6031746,18.7936508 C56.7301587,18.7936508 56.8253968,18.7936508 56.952381,18.7619048 L56.952381,18.7301587 C56.7936508,18.7301587 56.6666667,18.7301587 56.5079365,18.7301587 L56.2222222,18.5714286 C56.2222222,18.5714286 55.1746032,18.6031746 55.1428571,18.6349206 L55.3968254,18.7936508 C54.5714286,18.8571429 53.7460317,18.9206349 52.952381,19.047619 L52.7936508,18.984127 L51.6190476,19.1428571 C51.6190476,19.1428571 51.6825397,19.1746032 51.7777778,19.2380952 C50.7936508,19.3968254 49.8730159,19.6190476 48.9206349,19.8412698 L48.5079365,19.6825397 L47.6190476,19.968254 L47.968254,20.0952381 C47.1746032,20.3174603 46.4126984,20.5714286 45.6507937,20.8253968 L45.015873,20.6031746 L44,21.015873 L44.5396825,21.2063492 C43.6507937,21.5555556 42.7619048,21.9365079 41.9365079,22.3174603 L41.1111111,22.0952381 L40.0952381,22.5396825 C40.1269841,22.5396825 40.4444444,22.6349206 40.952381,22.7936508 C40.0634921,23.2380952 39.1746032,23.7142857 38.3492063,24.2222222 L37.2380952,23.9365079 L36,24.6349206 L37.2063492,24.9206349 C36.2222222,25.5555556 35.2698413,26.1904762 34.3492063,26.8571429 L32.8571429,26.5714286 L31.5238095,27.4920635 L33.1111111,27.7777778 C32.031746,28.6349206 31.015873,29.4920635 30.0634921,30.3492063 L28.1904762,30.0634921 L26.8571429,31.3968254 L28.6666667,31.6507937 C27.4285714,32.8571429 26.3174603,34 25.3333333,35.1111111 L23.1746032,34.9206349 L21.5873016,36.7619048 C21.5873016,36.7619048 22.4126984,36.8253968 23.7777778,36.9206349 C22.6666667,38.2539683 21.8412698,39.3650794 21.3333333,40.0952381 L15.9047619,40.0952381 L28.6984127,17.4920635 L32.8571429,24.6666667 L34.5079365,23.7142857 L28.6984127,13.6507937 L12.6349206,42 L22.0952381,42 C22.0952381,42 23.2063492,39.9365079 25.3968254,37.015873 C30.0952381,37.3333333 37.968254,37.9047619 42.3809524,38.2222222 C42.3174603,39.3650794 42.3174603,40.6031746 42.3809524,41.9047619 L44.1269841,41.9047619 C44,40.6349206 43.9365079,39.4603175 43.9365079,38.3492063 C44.952381,38.4126984 45.5873016,38.4761905 45.6507937,38.4761905 L45.6507937,36.7936508 L43.968254,36.6666667 C44.031746,35.6825397 44.1269841,34.7301587 44.2539683,33.8412698 L45.4920635,34 L45.6190476,32.6666667 L44.4761905,32.5079365 C44.6666667,31.6507937 44.8888889,30.8571429 45.1428571,30.1269841 L46.1269841,30.3174603 L46.2857143,29.2380952 L45.5238095,29.0793651 C45.8095238,28.4444444 46.0952381,27.8412698 46.4126984,27.2698413 L47.1746032,27.4603175 L47.6507937,26.6349206 L46.9206349,26.4444444 C47.2380952,25.9365079 47.5873016,25.4603175 47.968254,25.015873 C48.3809524,25.1428571 48.6349206,25.2380952 48.6349206,25.2380952 L49.3333333,24.4444444 L48.6349206,24.2539683 C49.047619,23.8412698 49.4603175,23.4285714 49.8730159,23.0793651 L50.4444444,23.2698413 L51.1428571,22.6666667 L50.6349206,22.5079365 C51.1111111,22.1587302 51.5555556,21.8730159 52.031746,21.5873016 L52.7619048,21.8412698 L53.2698413,21.4285714 L52.6984127,21.2063492 C53.2063492,20.952381 53.6825397,20.7301587 54.1269841,20.5396825 C54.3492063,20.6666667 54.5396825,20.7619048 54.5396825,20.7619048 C54.6031746,20.7619048 55.5555556,20.3174603 55.5555556,20.3174603 L55.2063492,20.1587302 C55.8095238,19.968254 56.3492063,19.8412698 56.7936508,19.7460317 L56.8571429,19.7777778 L57.8412698,19.6190476 L57.7460317,19.5555556 C58.1587302,19.4920635 58.3174603,19.4920635 58.3174603,19.4920635 Z M42.6349206,36.5079365 L26.9206349,35.2380952 C27.8095238,34.1587302 28.8253968,33.015873 29.968254,31.8412698 L43.1111111,33.6507937 C42.8888889,34.5079365 42.7301587,35.4603175 42.6349206,36.5079365 Z M43.4285714,32.2857143 L31.2698413,30.5079365 C32.1587302,29.6507937 33.1111111,28.7936508 34.1269841,27.968254 L44.2857143,29.8730159 C43.968254,30.6031746 43.6825397,31.4285714 43.4285714,32.2857143 Z M44.7301587,28.8253968 L35.2698413,27.015873 C36.1269841,26.3492063 37.015873,25.7142857 37.968254,25.0793651 L45.7777778,27.015873 C45.4285714,27.5873016 45.0793651,28.1904762 44.7301587,28.8253968 Z M46.3492063,26.1904762 L39.1111111,24.3492063 C39.9047619,23.8412698 40.7301587,23.3650794 41.5873016,22.9206349 C43.2380952,23.4285714 45.9365079,24.2539683 47.5238095,24.7619048 C47.1111111,25.2063492 46.7301587,25.6825397 46.3492063,26.1904762 Z M48.2539683,24.031746 L42.5396825,22.4444444 C43.3650794,22.031746 44.1904762,21.6825397 45.047619,21.3333333 L49.5873016,22.8888889 C49.1428571,23.2380952 48.6984127,23.6190476 48.2539683,24.031746 Z M50.3809524,22.3174603 L46.1269841,20.9206349 C46.8571429,20.6349206 47.6190476,20.4126984 48.3809524,20.1587302 L51.8730159,21.3968254 C51.3650794,21.6825397 50.8888889,21.968254 50.3809524,22.3174603 Z M52.5396825,21.047619 L49.3015873,19.9047619 C50.1904762,19.6825397 51.1111111,19.4603175 52.031746,19.3015873 C52.5396825,19.5873016 53.4603175,20.0952381 54.0634921,20.4126984 C53.5873016,20.5714286 53.0793651,20.7936508 52.5396825,21.047619 Z M55.1746032,20.031746 L53.2063492,19.1111111 C53.968254,18.984127 54.7619048,18.9206349 55.5555556,18.8571429 L56.8253968,19.6190476 C56.3492063,19.7142857 55.7777778,19.8412698 55.1746032,20.031746 Z" id="Shape"></path>
                    <polygon id="Path" points="47.3333333 36.2539683 49.6507937 40.0952381 46 40.0952381 46 42 53.015873 42 47.3650794 32.6031746"></polygon>
                </g>
                <rect id="Rectangle" x="122.444444" y="4.0952381" width="2.44444444" height="19.047619"></rect>
                <rect id="Rectangle" x="138.825397" y="4.0952381" width="2.44444444" height="19.047619"></rect>
                <rect id="Rectangle" x="174.285714" y="4.0952381" width="2.44444444" height="19.047619"></rect>
                <rect id="Rectangle" x="186.412698" y="4.0952381" width="2.44444444" height="19.047619"></rect>
                <rect id="Rectangle" x="153.015873" y="4.03174603" width="2.44444444" height="19.047619"></rect>
                <rect id="Rectangle" x="153.047619" y="12.3809524" width="9.52380952" height="2.0952381"></rect>
                <rect id="Rectangle" x="101.904762" y="12.3809524" width="9.52380952" height="2.0952381"></rect>
                <rect id="Rectangle" x="153.047619" y="20.984127" width="10.1904762" height="2.0952381"></rect>
                <rect id="Rectangle" x="153.047619" y="4.03174603" width="10.1904762" height="2.0952381"></rect>
                <polygon id="Path" points="69.7142857 23.1428571 66.952381 23.1428571 73.968254 4.0952381 76.7301587 4.0952381"></polygon>
                <polygon id="Path" points="81.047619 23.1428571 83.8095238 23.1428571 76.7936508 4.0952381 74.031746 4.0952381"></polygon>
                <polygon id="Path" points="133.238095 23.1428571 130.507937 23.1428571 122.698413 4.0952381 125.428571 4.0952381"></polygon>
                <polygon id="Path" points="188.857143 23.1428571 186.126984 23.1428571 174.285714 4.0952381 177.079365 4.0952381"></polygon>
                <polygon id="Path" points="140.920635 4.0952381 138.190476 4.0952381 130.380952 23.1428571 133.111111 23.1428571"></polygon>
                <path d="M109.269841,14.4761905 C108.793651,18.0634921 106.031746,20.8253968 102.666667,20.8253968 C98.984127,20.8253968 96,17.4920635 96,13.3650794 C96,9.23809524 98.984127,5.9047619 102.666667,5.9047619 C105.206349,5.9047619 107.396825,7.49206349 108.539683,9.80952381 L110.761905,9.80952381 C109.396825,6.15873016 106.634921,3.58730159 102.666667,3.58730159 C97.4603175,3.58730159 93.2698413,7.96825397 93.2698413,13.3650794 C93.2698413,18.7619048 97.4920635,23.1428571 102.666667,23.1428571 C107.492063,23.1428571 110.888889,19.3650794 111.428571,14.4761905 L109.269841,14.4761905 Z" id="Path"></path>
                <rect id="Rectangle" x="129.555556" y="31.8095238" width="1.11111111" height="8.6031746"></rect>
                <rect id="Rectangle" x="141.52381" y="31.8095238" width="1.11111111" height="8.6031746"></rect>
                <rect id="Rectangle" x="115.111111" y="31.8095238" width="1.11111111" height="8.6031746"></rect>
                <rect id="Rectangle" x="168.825397" y="31.8095238" width="1.11111111" height="8.6031746"></rect>
                <rect id="Rectangle" x="139.079365" y="31.8095238" width="6" height="1"></rect>
                <rect id="Rectangle" x="168.857143" y="39.4603175" width="4.19047619" height="1"></rect>
                <polygon id="Path" points="100.380952 40.4444444 99.1428571 40.4444444 102.31746 31.8095238 103.555556 31.8095238"></polygon>
                <polygon id="Path" points="105.52381 40.4444444 106.761905 40.4444444 103.587302 31.8095238 102.31746 31.8095238"></polygon>
                <rect id="Rectangle" x="100.412698" y="37.4603175" width="4.53968254" height="1.04761905"></rect>
                <polygon id="Path" points="154.253968 40.4444444 153.015873 40.4444444 156.190476 31.8095238 157.428571 31.8095238"></polygon>
                <polygon id="Path" points="159.396825 40.4444444 160.634921 40.4444444 157.460317 31.8095238 156.222222 31.8095238"></polygon>
                <rect id="Rectangle" x="154.285714" y="37.4603175" width="4.53968254" height="1.04761905"></rect>
                <path d="M89.968254,37.4603175 C89.5238095,38.6984127 88.4444444,39.5555556 87.1746032,39.5555556 C85.5238095,39.5555556 84.1587302,38.031746 84.1587302,36.1904762 C84.1587302,34.3174603 85.5238095,32.8253968 87.1746032,32.8253968 C88.2857143,32.8253968 89.2698413,33.5238095 89.7777778,34.5396825 L90.7936508,34.5396825 C90.1587302,32.9206349 88.9206349,31.7777778 87.1428571,31.7777778 C84.7936508,31.7777778 82.8888889,33.7460317 82.8888889,36.1904762 C82.8888889,38.6349206 84.7936508,40.6031746 87.1428571,40.6031746 C89.047619,40.6031746 90.4761905,39.2698413 90.952381,37.4603175 L89.968254,37.4603175 Z" id="Path"></path>
                <path d="M118.285714,31.8095238 L115.111111,31.8095238 L115.111111,37.1111111 L118.285714,37.1111111 C119.746032,37.1111111 120.952381,35.9365079 120.952381,34.4444444 C120.952381,33.015873 119.746032,31.8095238 118.285714,31.8095238 Z M119.904762,34.5396825 C119.904762,35.4285714 119.174603,36.1269841 118.31746,36.1269841 L116.222222,36.1269841 L116.222222,32.8253968 L118.31746,32.8253968 C119.206349,32.8253968 119.904762,33.5555556 119.904762,34.4126984 L119.904762,34.5396825 Z" id="Shape"></path>
            </g>
        </g>
    </g>
</svg>