<?xml version="1.0" encoding="UTF-8"?>
<svg width="16px" height="15px" viewBox="0 0 16 15" version="1.1" xmlns="http://www.w3.org/2000/svg" xmlns:xlink="http://www.w3.org/1999/xlink">
    <title>linkedin</title>
    <g id="Page-1" stroke="none" stroke-width="1" fill="none" fill-rule="evenodd">
        <g id="Homepage-new" transform="translate(-713.000000, -4162.000000)" fill="#1E1D1D" fill-rule="nonzero">
            <g id="lin" transform="translate(704.798832, 4155.535857)">
                <path d="M12.3808843,11.1797474 C12.5096162,11.1797474 12.6139253,11.284241 12.6139253,11.4130963 L12.6139253,11.4130963 L12.6139253,20.7436944 C12.6139253,20.8725963 12.5096162,20.9770433 12.3808843,20.9770433 L12.3808843,20.9770433 L9.48031587,20.9770433 C9.35158401,20.9770433 9.24727484,20.8725963 9.24727484,20.7436944 L9.24727484,20.7436944 L9.24727484,11.4130963 C9.24727484,11.284241 9.35158401,11.1797474 9.48031587,11.1797474 L9.48031587,11.1797474 Z M19.7586836,10.9478452 C23.0256858,10.9478452 23.4661799,13.3125568 23.4661799,15.6257451 L23.4661799,15.6257451 L23.4661799,20.7437411 C23.4661799,20.872643 23.3618707,20.97709 23.2331389,20.97709 L23.2331389,20.97709 L20.3378372,20.97709 C20.2091053,20.97709 20.1047961,20.872643 20.1047961,20.7437411 L20.1047961,20.7437411 L20.1047961,16.2072507 C20.1047961,14.9370856 20.011067,13.9655139 18.8315998,13.9655139 C17.7486115,13.9655139 17.3266208,14.5715678 17.3266208,16.127212 L17.3266208,16.127212 L17.3266208,20.7436944 C17.3266208,20.8725963 17.2223117,20.97709 17.0935798,20.97709 L17.0935798,20.97709 L14.1993501,20.97709 C14.0706182,20.97709 13.966309,20.8725963 13.966309,20.7436944 L13.966309,20.7436944 L13.966309,11.4130963 C13.966309,11.284241 14.0706182,11.1797474 14.1993501,11.1797474 L14.1993501,11.1797474 L16.9771525,11.1797474 C17.1058844,11.1797474 17.2101935,11.284241 17.2101935,11.4130963 L17.2101935,11.4130963 L17.2101935,12.0191036 C17.7325317,11.4493121 18.5937115,10.9478452 19.7586836,10.9478452 Z M10.9316488,6.54128349 C11.986206,6.54128349 12.8441699,7.40010099 12.8441233,8.455725 C12.8441233,9.51176904 11.986206,10.3709599 10.9316488,10.3709599 C9.87625258,10.3709599 9.01763622,9.51181571 9.01763622,8.455725 C9.01763622,7.40010099 9.87625258,6.54128349 10.9316488,6.54128349 Z" id="linkedin"></path>
            </g>
        </g>
    </g>
</svg>