<?xml version="1.0" encoding="UTF-8"?>
<svg width="483px" height="257px" viewBox="0 0 483 257" version="1.1" xmlns="http://www.w3.org/2000/svg" xmlns:xlink="http://www.w3.org/1999/xlink">
    <title>pilot</title>
    <defs>
        <polygon id="path-1" points="2.27097818e-15 7.74197106e-16 32.4307152 7.74197106e-16 32.4307152 32.4336905 0 32.4336905"></polygon>
    </defs>
    <g id="Page-1" stroke="none" stroke-width="1" fill="none" fill-rule="evenodd">
        <g id="pilot" transform="translate(0.382247, 0.431682)">
            <g id="Clipped" transform="translate(155.291802, 0.000000)">
                <mask id="mask-2" fill="white">
                    <use xlink:href="#path-1"></use>
                </mask>
                <g id="a"></g>
                <path d="M16.4809027,7.74197106e-16 C7.4434442,7.74197106e-16 2.27097818e-15,7.4434442 2.27097818e-15,16.2168453 C2.27097818e-15,25.2543037 7.4434442,32.4336905 16.4809027,32.4336905 C25.5183612,32.4336905 32.4307152,25.2543037 32.4307152,16.2168453 C32.4307152,7.4434442 25.5183612,7.74197106e-16 16.4809027,7.74197106e-16" id="Path" fill="#5F2EE5" fill-rule="nonzero" mask="url(#mask-2)"></path>
            </g>
            <path d="M209.66383,200.969274 L232.523765,200.969274 L232.523765,1.59475811 L209.66383,1.59475811 L209.66383,200.969274 Z M320.663904,65.3954959 C280.524199,65.3954959 251.013736,96.2321968 251.013736,134.51383 C251.013736,172.791743 280.524199,203.629932 320.663904,203.629932 C360.538807,203.629932 390.044063,172.791743 390.044063,134.51383 C390.044063,96.2321968 360.538807,65.3954959 320.663904,65.3954959 M320.663904,182.361036 C293.016719,182.361036 274.407736,161.095115 274.407736,134.51383 C274.407736,107.929569 293.016719,86.6614167 320.663904,86.6614167 C348.310344,86.6614167 366.653038,107.929569 366.653038,134.51383 C366.653038,161.095115 348.310344,182.361036 320.663904,182.361036 M482.173328,89.0542977 L482.173328,68.053922 L443.894671,68.053922 L443.894671,33.018336 L421.032504,44.5133881 L421.032504,68.0531781 L392.854229,68.0531781 L392.854229,89.0550415 L421.032504,89.0550415 L421.032504,161.627693 C421.032504,189.274877 438.576331,202.301463 461.703299,202.301463 C469.944866,202.301463 476.590931,200.969274 482.173328,199.108227 L482.173328,178.640429 C477.920144,180.234444 471.539624,181.299599 465.956483,181.299599 C451.600685,181.299599 443.894671,175.717202 443.894671,158.704465 L443.894671,89.0542977 L482.173328,89.0542977 Z M69.5118165,64.9298622 C51.5648372,64.9298622 35.2096407,71.733618 22.8755554,82.8991562 L22.8755554,67.943836 L0,67.943836 L0,256.528445 L22.8748116,256.528445 L22.8748116,185.984201 C35.2088969,197.150483 51.5640934,203.952008 69.5110727,203.952008 C107.902791,203.952008 139.021402,172.832654 139.021402,134.440935 C139.021402,96.0521915 107.902791,64.9298622 69.5110727,64.9298622 M69.5110727,181.077196 C43.7554317,181.077196 22.8748116,160.196576 22.8748116,134.440935 C22.8748116,108.685294 43.7554317,87.8046738 69.5110727,87.8046738 C95.2667136,87.8046738 116.147334,108.685294 116.147334,134.440935 C116.147334,160.196576 95.2667136,181.077196 69.5110727,181.077196" id="Shape" fill="#5F2EE5" fill-rule="nonzero"></path>
            <path d="M69.5162794,116.253701 C59.697806,116.253701 51.7403796,124.211127 51.7403796,134.0296 C51.7403796,143.845098 59.697806,151.804756 69.5162794,151.804756 C79.3347529,151.804756 87.2914354,143.845098 87.2914354,134.0296 C87.2914354,124.211127 79.3347529,116.253701 69.5162794,116.253701 M139.80316,68.053922 L146.188887,89.0550415 L160.076076,89.0550415 L160.076076,200.969274 L182.936755,200.969274 L182.936755,68.053922 L139.80316,68.053922 Z" id="Shape" fill="#5F2EE5" fill-rule="nonzero"></path>
        </g>
    </g>
</svg>