<?xml version="1.0" encoding="UTF-8"?>
<svg width="2294px" height="686px" viewBox="0 0 2294 686" version="1.1" xmlns="http://www.w3.org/2000/svg" xmlns:xlink="http://www.w3.org/1999/xlink">
    <title>shape5</title>
    <defs>
        <linearGradient x1="-1.48040271%" y1="49.3927453%" x2="100%" y2="52.6100567%" id="linearGradient-1">
            <stop stop-color="#132772" offset="0%"></stop>
            <stop stop-color="#1D147F" offset="29.8056045%"></stop>
            <stop stop-color="#132772" offset="100%"></stop>
        </linearGradient>
        <filter x="-4.8%" y="-19.0%" width="109.6%" height="138.1%" filterUnits="objectBoundingBox" id="filter-2">
            <feGaussianBlur stdDeviation="34" in="SourceGraphic"></feGaussianBlur>
        </filter>
    </defs>
    <g id="dev" stroke="none" stroke-width="1" fill="none" fill-rule="evenodd">
        <path d="M2089.48096,609.337551 C1926.97866,669.937941 81.5243458,520.074814 81.5243458,381.676626 C81.5243458,289.411167 142.964257,221.713434 265.84408,178.583427 C378.191347,132.723672 493.046365,121.258733 610.409134,144.188611 C786.453289,178.583427 885.760247,220.34856 1006.13232,155.653549 C1126.50439,90.9585381 1216.03112,19.7121335 1443.98573,210.52147 C1595.95547,337.727694 1728.61552,384.679348 1841.96589,351.376431 C1928.23254,303.332878 2023.02555,319.438387 2126.34491,399.692958 C2247.91672,494.125343 2230.77045,556.647846 2089.48096,609.337551 Z" id="shape5" fill="url(#linearGradient-1)" filter="url(#filter-2)" transform="translate(1144.524346, 355.176029) rotate(-2.000000) translate(-1144.524346, -355.176029) "></path>
    </g>
</svg>