<?xml version="1.0" encoding="UTF-8"?>
<svg width="2294px" height="686px" viewBox="0 0 2294 686" version="1.1" xmlns="http://www.w3.org/2000/svg" xmlns:xlink="http://www.w3.org/1999/xlink">
    <title>shape5</title>
    <defs>
        <linearGradient x1="-1.48040271%" y1="49.3927453%" x2="100%" y2="52.6100567%" id="linearGradient-1">
            <stop stop-color="#132772" offset="0%"></stop>
            <stop stop-color="#1D147F" offset="29.8056045%"></stop>
            <stop stop-color="#163682" offset="100%"></stop>
        </linearGradient>
        <filter x="-4.8%" y="-19.0%" width="109.6%" height="138.1%" filterUnits="objectBoundingBox" id="filter-2">
            <feGaussianBlur stdDeviation="34" in="SourceGraphic"></feGaussianBlur>
        </filter>
    </defs>
    <g id="Page-1" stroke="none" stroke-width="1" fill="none" fill-rule="evenodd">
        <path d="M2089.3869,608.700249 C1926.8846,669.300639 81.4302821,519.437512 81.4302821,381.039323 C81.4302821,288.773865 142.870193,221.076132 265.750016,177.946124 C378.097283,132.086369 492.952301,120.621431 610.31507,143.551308 C786.359225,177.946124 885.666184,219.711258 1006.03825,155.016247 C1126.41033,90.3212357 1215.93705,19.0748311 1443.89166,209.884168 C1595.8614,337.090392 1728.52146,384.042046 1841.87183,350.739128 C1928.13848,302.695576 2022.93148,318.801085 2126.25084,399.055656 C2247.82266,493.488041 2230.67638,556.010544 2089.3869,608.700249 Z" id="shape5" fill="url(#linearGradient-1)" filter="url(#filter-2)" transform="translate(1144.430282, 354.538727) rotate(-2.000000) translate(-1144.430282, -354.538727) "></path>
    </g>
</svg>