<?xml version="1.0" encoding="UTF-8"?>
<svg width="1811px" height="657px" viewBox="0 0 1811 657" version="1.1" xmlns="http://www.w3.org/2000/svg" xmlns:xlink="http://www.w3.org/1999/xlink">
    <title>shape3</title>
    <defs>
        <linearGradient x1="1.99854927%" y1="46.5377685%" x2="100%" y2="53.3595979%" id="linearGradient-1">
            <stop stop-color="#117A9F" offset="0%"></stop>
            <stop stop-color="#1B5089" offset="100%"></stop>
        </linearGradient>
        <filter x="-6.2%" y="-20.9%" width="112.4%" height="141.9%" filterUnits="objectBoundingBox" id="filter-2">
            <feGaussianBlur stdDeviation="34" in="SourceGraphic"></feGaussianBlur>
        </filter>
    </defs>
    <g id="dev" stroke="none" stroke-width="1" fill="none" fill-rule="evenodd" opacity="0.314135174">
        <path d="M1638.44142,558.629511 C1512.39895,613.68994 81,477.526987 81,351.780872 C81,267.950128 128.654945,206.441181 223.964836,167.254028 C311.105308,125.586677 400.190879,115.169839 491.22155,136.003515 C627.767557,167.254028 704.79351,205.201081 798.158301,146.420353 C891.523092,87.6396242 960.963155,22.906417 1137.77273,196.272363 C1255.64578,311.84966 1358.54156,354.509091 1446.46007,324.250657 C1513.3715,280.599146 1586.89627,295.232323 1667.03439,368.150189 C1761.32974,453.949763 1748.03049,510.756589 1638.44142,558.629511 Z" id="shape3" fill="url(#linearGradient-1)" filter="url(#filter-2)"></path>
    </g>
</svg>