<?xml version="1.0" encoding="UTF-8"?>
<svg width="210px" height="47px" viewBox="0 0 210 47" version="1.1" xmlns="http://www.w3.org/2000/svg" xmlns:xlink="http://www.w3.org/1999/xlink">
    <title>white-logo</title>
    <g id="Page-1" stroke="none" stroke-width="1" fill="none" fill-rule="evenodd">
        <g id="Homepage-new" transform="translate(-135.000000, -21.000000)" fill="#FFFFFF" fill-rule="nonzero">
            <g id="white-logo" transform="translate(135.000000, 21.149017)">
                <g id="Group" transform="translate(0.000000, -0.000000)">
                    <polygon id="Path" points="43.3484619 23.7569339 45.1840645 22.7332325 32.193646 0 6.74230963 44.5839637 0 44.5839637 0 46.7019667 7.9778114 46.7019667 32.193646 4.2713061"></polygon>
                    <path d="M64.8461926,21.674231 L64.8108926,21.5683308 C64.8108926,21.5683308 64.5990923,21.5683308 64.2460918,21.6389309 L62.9399899,20.8976299 C63.0811901,20.8976299 63.1870903,20.8976299 63.3282905,20.8623298 L63.3282905,20.8270298 C63.1517902,20.8270298 63.01059,20.8270298 62.8340898,20.8270298 L62.5163893,20.6505295 C62.5163893,20.6505295 61.3514876,20.6858296 61.3161876,20.7211296 L61.598588,20.8976299 C60.6807867,20.96823 59.7629854,21.0388301 58.8804841,21.1800303 L58.7039839,21.1094302 L57.397882,21.2859304 C57.397882,21.2859304 57.4684821,21.3212305 57.5743822,21.3918306 C56.4800807,21.5683308 55.4563792,21.8154312 54.3973777,22.0625315 L53.9384771,21.8860313 L52.9500756,22.2037317 L53.3383762,22.3449319 C52.4558749,22.5920323 51.6086737,22.8744327 50.7614725,23.1568331 L50.0554715,22.9097327 L48.9258699,23.3686334 L49.5259708,23.5804337 C48.5375693,23.9687342 47.5491679,24.3923348 46.6313666,24.8159355 L45.7135653,24.5688351 L44.5839637,25.0630358 C44.6192637,25.0630358 44.9722642,25.168936 45.5370651,25.3454362 C44.5486636,25.8396369 43.5602622,26.3691377 42.6424609,26.9339385 L41.4069592,26.616238 L40.0302572,27.3928391 L41.3716591,27.7105396 C40.2773575,28.4165406 39.218356,29.1225416 38.1946546,29.8638427 L36.5355522,29.5461422 L35.0529501,30.5698437 L36.8179526,30.8875441 C35.6177509,31.8406455 34.4881493,32.7937468 33.4291478,33.7468482 L31.3464448,33.4291478 L29.8638427,34.9117499 L31.8759455,35.1941503 C30.4992436,36.5355522 29.2637418,37.806354 28.1694402,39.0418558 L25.7690368,38.8300555 L24.0040343,40.8774584 C24.0040343,40.8774584 24.9218356,40.9480585 26.4397378,41.0539586 C25.204236,42.5365608 24.2864347,43.7720625 23.7216339,44.5839637 L17.6853253,44.5839637 L31.9112456,19.4503278 L36.5355522,27.4281392 L38.3711548,26.3691377 L31.9112456,15.1790217 L14.0494201,46.7019667 L24.5688351,46.7019667 C24.5688351,46.7019667 25.8043369,44.4074634 28.2400403,41.1598588 C33.4644478,41.5128593 42.2188603,42.1482602 47.1255673,42.5012607 C47.0549672,43.7720625 47.0549672,45.1487645 47.1255673,46.5960666 L49.0670701,46.5960666 C48.9258699,45.1840645 48.8552698,43.8779627 48.8552698,42.6424609 C49.9848714,42.713061 50.6908724,42.7836611 50.7614725,42.7836611 L50.7614725,40.9127584 L48.8905698,40.7715582 C48.9611699,39.6772567 49.0670701,38.6182552 49.2082703,37.6298538 L50.5849723,37.806354 L50.7261725,36.3237519 L49.4553707,36.1472516 C49.667171,35.1941503 49.9142713,34.311649 50.1966717,33.4997479 L51.2909733,33.7115482 L51.4674735,32.5113464 L50.6202723,32.3348462 C50.9379728,31.6288452 51.2556732,30.9581442 51.6086737,30.3227433 L52.4558749,30.5345436 L52.9853757,29.6167423 L52.1734745,29.404942 C52.526475,28.8401412 52.9147756,28.3106404 53.3383762,27.8164397 C53.7972769,27.9576399 54.0796773,28.0635401 54.0796773,28.0635401 L54.8562784,27.1810388 L54.0796773,26.9692385 C54.5385779,26.5103379 54.9974786,26.0514372 55.4563792,25.6631367 L56.0917801,25.874937 L56.8683812,25.204236 L56.3035804,25.0277358 C56.8330812,24.6394352 57.3272819,24.3217347 57.8567827,24.0040343 L58.6686838,24.2864347 L59.2334846,23.827534 L58.5980837,23.5804337 C59.1628845,23.2980333 59.6923853,23.0509329 60.186586,22.8391326 C60.4336863,22.9803328 60.6454866,23.086233 60.6454866,23.086233 C60.7160867,23.086233 61.7750883,22.5920323 61.7750883,22.5920323 L61.3867877,22.415532 C62.0574887,22.2037317 62.6575895,22.0625315 63.1517902,21.9566314 L63.2223903,21.9919314 L64.3166919,21.8154312 L64.2107917,21.7448311 C64.6696924,21.674231 64.8461926,21.674231 64.8461926,21.674231 Z M47.4079677,40.595058 L29.9344428,39.183056 C30.9228442,37.9828543 32.0524458,36.7120524 33.3232476,35.4059506 L47.9374685,37.4180535 C47.6903681,38.3711548 47.5138679,39.4301563 47.4079677,40.595058 Z M48.290469,35.9001513 L34.7705497,33.9233485 C35.7589511,32.9702471 36.8179526,32.0171457 37.9475542,31.0993444 L49.2435703,33.2173475 C48.8905698,34.0292486 48.5728694,34.9470499 48.290469,35.9001513 Z M49.7377711,32.0524458 L39.218356,30.0403429 C40.1714574,29.2990419 41.1598588,28.5930408 42.2188603,27.8870398 L50.9026727,30.0403429 C50.5143722,30.6757438 50.1260716,31.3464448 49.7377711,32.0524458 Z M51.5380736,29.1225416 L43.4896621,27.0751387 C44.3721634,26.5103379 45.2899647,25.9808371 46.2430661,25.4866364 C48.0786687,26.0514372 51.079173,26.9692385 52.8441755,27.5340393 C52.3852748,28.02824 51.9616742,28.5577408 51.5380736,29.1225416 Z M53.6560767,26.7221382 L47.3020676,24.9571357 C48.2198689,24.498235 49.1376702,24.1099344 50.0907716,23.7216339 L55.1386788,25.4513364 C54.6444781,25.8396369 54.1502774,26.2632375 53.6560767,26.7221382 Z M56.02118,24.8159355 L51.2909733,23.2627332 C52.1028744,22.9450328 52.9500756,22.6979324 53.7972769,22.415532 L57.6802824,23.792234 C57.1154816,24.1099344 56.5859808,24.4276349 56.02118,24.8159355 Z M58.4215835,23.4039334 L54.8209783,22.1331316 C55.8093797,21.8860313 56.8330812,21.6389309 57.8567827,21.4624307 C58.4215835,21.7801311 59.4452849,22.3449319 60.1159859,22.6979324 C59.5864851,22.8744327 59.0216843,23.121533 58.4215835,23.4039334 Z M61.3514876,22.2743318 L59.1628845,21.2506304 C60.0100857,21.1094302 60.892587,21.0388301 61.7750883,20.96823 L63.1870903,21.8154312 C62.6575895,21.9213313 62.0221886,22.0625315 61.3514876,22.2743318 Z" id="Shape"></path>
                    <polygon id="Path" points="52.6323752 40.3126576 55.2092789 44.5839637 51.1497731 44.5839637 51.1497731 46.7019667 58.9510842 46.7019667 52.6676752 36.2531518"></polygon>
                </g>
                <rect id="Rectangle" x="136.152295" y="4.55370651" width="2.71810388" height="21.1800303"></rect>
                <rect id="Rectangle" x="154.367121" y="4.55370651" width="2.71810388" height="21.1800303"></rect>
                <rect id="Rectangle" x="193.797277" y="4.55370651" width="2.71810388" height="21.1800303"></rect>
                <rect id="Rectangle" x="207.281896" y="4.55370651" width="2.71810388" height="21.1800303"></rect>
                <rect id="Rectangle" x="170.146243" y="4.4831064" width="2.71810388" height="21.1800303"></rect>
                <rect id="Rectangle" x="170.181543" y="13.7670197" width="10.5900151" height="2.32980333"></rect>
                <rect id="Rectangle" x="113.313162" y="13.7670197" width="10.5900151" height="2.32980333"></rect>
                <rect id="Rectangle" x="170.181543" y="23.3333333" width="11.3313162" height="2.32980333"></rect>
                <rect id="Rectangle" x="170.181543" y="4.4831064" width="11.3313162" height="2.32980333"></rect>
                <polygon id="Path" points="77.5189107 25.7337368 74.4478064 25.7337368 82.2491175 4.55370651 85.3202219 4.55370651"></polygon>
                <polygon id="Path" points="90.1210287 25.7337368 93.1921331 25.7337368 85.390822 4.55370651 82.3197176 4.55370651"></polygon>
                <polygon id="Path" points="148.154312 25.7337368 145.118507 25.7337368 136.434695 4.55370651 139.470499 4.55370651"></polygon>
                <polygon id="Path" points="210 25.7337368 206.964196 25.7337368 193.797277 4.55370651 196.903681 4.55370651"></polygon>
                <polygon id="Path" points="156.696924 4.55370651 153.66112 4.55370651 144.977307 25.7337368 148.013111 25.7337368"></polygon>
                <path d="M121.502774,16.096823 C120.973273,20.0857287 117.902168,23.1568331 114.160363,23.1568331 C110.065557,23.1568331 106.747352,19.4503278 106.747352,14.8613212 C106.747352,10.2723147 110.065557,6.56580938 114.160363,6.56580938 C116.984367,6.56580938 119.420071,8.3308119 120.690872,10.9077156 L123.161876,10.9077156 C121.643974,6.84820978 118.572869,3.9889057 114.160363,3.9889057 C108.371155,3.9889057 103.711548,8.86031266 103.711548,14.8613212 C103.711548,20.8623298 108.406455,25.7337368 114.160363,25.7337368 C119.525971,25.7337368 123.303076,21.5330308 123.903177,16.096823 L121.502774,16.096823 Z" id="Path"></path>
                <rect id="Rectangle" x="144.059506" y="35.3706505" width="1.23550177" height="9.56631367"></rect>
                <rect id="Rectangle" x="157.367625" y="35.3706505" width="1.23550177" height="9.56631367"></rect>
                <rect id="Rectangle" x="127.997983" y="35.3706505" width="1.23550177" height="9.56631367"></rect>
                <rect id="Rectangle" x="187.725668" y="35.3706505" width="1.23550177" height="9.56631367"></rect>
                <rect id="Rectangle" x="154.649521" y="35.3706505" width="6.67170953" height="1.05900151"></rect>
                <rect id="Rectangle" x="187.760968" y="43.8779627" width="4.65960666" height="1.05900151"></rect>
                <polygon id="Path" points="111.618759 44.9722642 110.242057 44.9722642 113.772063 35.3706505 115.148764 35.3706505"></polygon>
                <polygon id="Path" points="117.337368 44.9722642 118.71407 44.9722642 115.184065 35.3706505 113.772063 35.3706505"></polygon>
                <rect id="Rectangle" x="111.65406" y="41.6540595" width="5.04790721" height="1.16490166"></rect>
                <polygon id="Path" points="171.522945 44.9722642 170.146243 44.9722642 173.676248 35.3706505 175.05295 35.3706505"></polygon>
                <polygon id="Path" points="177.241553 44.9722642 178.618255 44.9722642 175.08825 35.3706505 173.711548 35.3706505"></polygon>
                <rect id="Rectangle" x="171.558245" y="41.6540595" width="5.04790721" height="1.16490166"></rect>
                <path d="M100.040343,41.6540595 C99.5461422,43.0307615 98.3459405,43.9838628 96.9339385,43.9838628 C95.0983359,43.9838628 93.5804337,42.2894604 93.5804337,40.2420575 C93.5804337,38.1593545 95.0983359,36.5002521 96.9339385,36.5002521 C98.1694402,36.5002521 99.2637418,37.2768533 99.8285426,38.4064549 L100.958144,38.4064549 C100.252143,36.6061523 98.8754413,35.3353505 96.8986384,35.3353505 C94.2864347,35.3353505 92.1684317,37.5239536 92.1684317,40.2420575 C92.1684317,42.9601614 94.2864347,45.1487645 96.8986384,45.1487645 C99.0166415,45.1487645 100.605144,43.6661624 101.134644,41.6540595 L100.040343,41.6540595 Z" id="Path"></path>
                <path d="M131.527988,35.3706505 L127.997983,35.3706505 L127.997983,41.265759 L131.527988,41.265759 C133.15179,41.265759 134.493192,39.9596571 134.493192,38.3005547 C134.493192,36.7120524 133.15179,35.3706505 131.527988,35.3706505 Z M133.32829,38.4064549 C133.32829,39.3948563 132.516389,40.1714574 131.563288,40.1714574 L129.233485,40.1714574 L129.233485,36.5002521 L131.563288,36.5002521 C132.551689,36.5002521 133.32829,37.3121533 133.32829,38.2652547 L133.32829,38.4064549 Z" id="Shape"></path>
            </g>
        </g>
    </g>
</svg>