<?xml version="1.0" encoding="UTF-8"?>
<svg width="100px" height="73px" viewBox="0 0 100 73" version="1.1" xmlns="http://www.w3.org/2000/svg" xmlns:xlink="http://www.w3.org/1999/xlink">
    <title>white-icon</title>
    <g id="Page-1" stroke="none" stroke-width="1" fill="none" fill-rule="evenodd">
        <g id="Homepage-new" transform="translate(-1115.000000, -2111.000000)" fill="#FFFFFF" fill-rule="nonzero">
            <g id="white-icon" transform="translate(1115.013605, 2111.701967)">
                <polygon id="Path" points="66.829932 36.6258503 69.6598639 35.047619 49.6326531 0 10.3945578 68.7346939 0 68.7346939 0 72 12.2993197 72 49.6326531 6.58503401"></polygon>
                <path d="M99.9727891,33.414966 L99.9183673,33.2517007 C99.9183673,33.2517007 99.5918367,33.2517007 99.047619,33.3605442 L97.0340136,32.2176871 C97.2517007,32.2176871 97.414966,32.2176871 97.6326531,32.1632653 L97.6326531,32.1088435 C97.3605442,32.1088435 97.1428571,32.1088435 96.8707483,32.1088435 L96.3809524,31.8367347 C96.3809524,31.8367347 94.585034,31.8911565 94.5306122,31.9455782 L94.9659864,32.2176871 C93.5510204,32.3265306 92.1360544,32.4353741 90.7755102,32.6530612 L90.5034014,32.5442177 L88.4897959,32.8163265 C88.4897959,32.8163265 88.5986395,32.8707483 88.7619048,32.9795918 C87.0748299,33.2517007 85.4965986,33.6326531 83.8639456,34.0136054 L83.1564626,33.7414966 L81.6326531,34.2312925 L82.2312925,34.4489796 C80.8707483,34.829932 79.5646259,35.2653061 78.2585034,35.7006803 L77.170068,35.3197279 L75.4285714,36.0272109 L76.3537415,36.3537415 C74.829932,36.952381 73.3061224,37.6054422 71.8911565,38.2585034 L70.4761905,37.877551 L68.7346939,38.6394558 C68.7891156,38.6394558 69.3333333,38.8027211 70.2040816,39.0748299 C68.6802721,39.8367347 67.1564626,40.6530612 65.7414966,41.5238095 L63.8367347,41.0340136 L61.7142857,42.2312925 L63.7823129,42.7210884 C62.0952381,43.8095238 60.462585,44.8979592 58.8843537,46.0408163 L56.3265306,45.5510204 L54.0408163,47.1292517 L56.7619048,47.6190476 C54.9115646,49.0884354 53.170068,50.5578231 51.537415,52.0272109 L48.3265306,51.537415 L46.0408163,53.8231293 L49.1428571,54.2585034 C47.0204082,56.3265306 45.1156463,58.2857143 43.4285714,60.1904762 L39.7278912,59.8639456 L37.0068027,63.0204082 C37.0068027,63.0204082 38.4217687,63.1292517 40.7619048,63.292517 C38.8571429,65.5782313 37.4421769,67.4829932 36.5714286,68.7346939 L27.2653061,68.7346939 L49.1972789,29.9863946 L56.3265306,42.2857143 L59.1564626,40.6530612 L49.1972789,23.4013605 L21.6598639,72 L37.877551,72 C37.877551,72 39.7823129,68.462585 43.537415,63.4557823 C51.5918367,64 65.0884354,64.9795918 72.6530612,65.5238095 C72.5442177,67.4829932 72.5442177,69.6054422 72.6530612,71.8367347 L75.6462585,71.8367347 C75.4285714,69.6598639 75.3197279,67.6462585 75.3197279,65.7414966 C77.0612245,65.8503401 78.1496599,65.9591837 78.2585034,65.9591837 L78.2585034,63.0748299 L75.3741497,62.8571429 C75.4829932,61.170068 75.6462585,59.537415 75.8639456,58.0136054 L77.9863946,58.2857143 L78.2040816,56 L76.244898,55.7278912 C76.5714286,54.2585034 76.952381,52.8979592 77.3877551,51.6462585 L79.0748299,51.9727891 L79.3469388,50.122449 L78.0408163,49.8503401 C78.5306122,48.7619048 79.0204082,47.7278912 79.5646259,46.7482993 L80.8707483,47.0748299 L81.6870748,45.6598639 L80.4353741,45.3333333 C80.9795918,44.462585 81.5782313,43.6462585 82.2312925,42.8843537 C82.9387755,43.1020408 83.3741497,43.2653061 83.3741497,43.2653061 L84.5714286,41.9047619 L83.3741497,41.5782313 C84.0816327,40.8707483 84.7891156,40.1632653 85.4965986,39.5646259 L86.4761905,39.8911565 L87.6734694,38.8571429 L86.8027211,38.585034 C87.6190476,37.9863946 88.3809524,37.4965986 89.1972789,37.0068027 L90.4489796,37.4421769 L91.3197279,36.7346939 L90.3401361,36.3537415 C91.2108844,35.9183673 92.0272109,35.537415 92.7891156,35.2108844 C93.170068,35.4285714 93.4965986,35.5918367 93.4965986,35.5918367 C93.6054422,35.5918367 95.2380952,34.829932 95.2380952,34.829932 L94.6394558,34.5578231 C95.6734694,34.2312925 96.5986395,34.0136054 97.3605442,33.8503401 L97.4693878,33.9047619 L99.1564626,33.6326531 L98.9931973,33.5238095 C99.7006803,33.414966 99.9727891,33.414966 99.9727891,33.414966 Z M73.0884354,62.585034 L46.1496599,60.4081633 C47.6734694,58.5578231 49.414966,56.5986395 51.3741497,54.585034 L73.9047619,57.6870748 C73.5238095,59.1564626 73.2517007,60.7891156 73.0884354,62.585034 Z M74.4489796,55.3469388 L53.6054422,52.2993197 C55.1292517,50.829932 56.7619048,49.3605442 58.5034014,47.9455782 L75.9183673,51.2108844 C75.3741497,52.462585 74.8843537,53.877551 74.4489796,55.3469388 Z M76.6802721,49.414966 L60.462585,46.3129252 C61.9319728,45.170068 63.4557823,44.0816327 65.0884354,42.9931973 L78.4761905,46.3129252 C77.877551,47.292517 77.2789116,48.3265306 76.6802721,49.414966 Z M79.4557823,44.8979592 L67.047619,41.7414966 C68.4081633,40.8707483 69.8231293,40.0544218 71.292517,39.292517 C74.122449,40.1632653 78.7482993,41.5782313 81.4693878,42.4489796 C80.7619048,43.2108844 80.1088435,44.0272109 79.4557823,44.8979592 Z M82.7210884,41.1972789 L72.9251701,38.4761905 C74.3401361,37.7687075 75.755102,37.170068 77.2244898,36.5714286 L85.0068027,39.2380952 C84.244898,39.8367347 83.4829932,40.4897959 82.7210884,41.1972789 Z M86.3673469,38.2585034 L79.0748299,35.8639456 C80.3265306,35.3741497 81.6326531,34.9931973 82.9387755,34.5578231 L88.9251701,36.6802721 C88.0544218,37.170068 87.2380952,37.6598639 86.3673469,38.2585034 Z M90.0680272,36.0816327 L84.5170068,34.122449 C86.0408163,33.7414966 87.6190476,33.3605442 89.1972789,33.0884354 C90.0680272,33.5782313 91.6462585,34.4489796 92.6802721,34.9931973 C91.8639456,35.2653061 90.9931973,35.6462585 90.0680272,36.0816327 Z M94.585034,34.3401361 L91.2108844,32.7619048 C92.5170068,32.5442177 93.877551,32.4353741 95.2380952,32.3265306 L97.414966,33.6326531 C96.5986395,33.7959184 95.6190476,34.0136054 94.585034,34.3401361 Z" id="Shape"></path>
                <polygon id="Path" points="81.1428571 62.1496599 85.1156463 68.7346939 78.8571429 68.7346939 78.8571429 72 90.8843537 72 81.1972789 55.8911565"></polygon>
            </g>
        </g>
    </g>
</svg>